<mxfile host="app.diagrams.net" agent="Mozilla/5.0 (Windows NT 10.0; Win64; x64) AppleWebKit/537.36 (KHTML, like Gecko) Chrome/134.0.0.0 YaBrowser/25.4.0.0 Safari/537.36" version="26.2.14">
  <diagram name="Страница — 1" id="uHCz0opLDgtvJX6blynk">
    <mxGraphModel dx="947" dy="552" grid="1" gridSize="10" guides="1" tooltips="1" connect="1" arrows="1" fold="1" page="1" pageScale="1" pageWidth="827" pageHeight="1169" math="0" shadow="0">
      <root>
        <mxCell id="0" />
        <mxCell id="1" parent="0" />
        <mxCell id="Hu7ftofWcwDn4Vq2h7EB-1" style="edgeStyle=orthogonalEdgeStyle;rounded=0;orthogonalLoop=1;jettySize=auto;html=1;" edge="1" parent="1" source="Hu7ftofWcwDn4Vq2h7EB-9" target="Hu7ftofWcwDn4Vq2h7EB-18">
          <mxGeometry relative="1" as="geometry">
            <Array as="points">
              <mxPoint x="405" y="200" />
              <mxPoint x="210" y="200" />
            </Array>
          </mxGeometry>
        </mxCell>
        <mxCell id="Hu7ftofWcwDn4Vq2h7EB-2" style="edgeStyle=orthogonalEdgeStyle;rounded=0;orthogonalLoop=1;jettySize=auto;html=1;" edge="1" parent="1" source="Hu7ftofWcwDn4Vq2h7EB-9" target="Hu7ftofWcwDn4Vq2h7EB-24">
          <mxGeometry relative="1" as="geometry">
            <Array as="points">
              <mxPoint x="405" y="200" />
              <mxPoint x="360" y="200" />
            </Array>
          </mxGeometry>
        </mxCell>
        <mxCell id="Hu7ftofWcwDn4Vq2h7EB-3" style="edgeStyle=orthogonalEdgeStyle;rounded=0;orthogonalLoop=1;jettySize=auto;html=1;entryX=0.5;entryY=0;entryDx=0;entryDy=0;" edge="1" parent="1" source="Hu7ftofWcwDn4Vq2h7EB-9" target="Hu7ftofWcwDn4Vq2h7EB-29">
          <mxGeometry relative="1" as="geometry">
            <Array as="points">
              <mxPoint x="405" y="200" />
              <mxPoint x="510" y="200" />
            </Array>
          </mxGeometry>
        </mxCell>
        <mxCell id="Hu7ftofWcwDn4Vq2h7EB-4" style="edgeStyle=orthogonalEdgeStyle;rounded=0;orthogonalLoop=1;jettySize=auto;html=1;" edge="1" parent="1" source="Hu7ftofWcwDn4Vq2h7EB-9" target="Hu7ftofWcwDn4Vq2h7EB-35">
          <mxGeometry relative="1" as="geometry">
            <Array as="points">
              <mxPoint x="405" y="200" />
              <mxPoint x="660" y="200" />
            </Array>
          </mxGeometry>
        </mxCell>
        <mxCell id="Hu7ftofWcwDn4Vq2h7EB-5" style="edgeStyle=orthogonalEdgeStyle;rounded=0;orthogonalLoop=1;jettySize=auto;html=1;entryX=0.5;entryY=0;entryDx=0;entryDy=0;" edge="1" parent="1" source="Hu7ftofWcwDn4Vq2h7EB-9" target="Hu7ftofWcwDn4Vq2h7EB-40">
          <mxGeometry relative="1" as="geometry">
            <Array as="points">
              <mxPoint x="405" y="200" />
              <mxPoint x="800" y="200" />
            </Array>
          </mxGeometry>
        </mxCell>
        <mxCell id="Hu7ftofWcwDn4Vq2h7EB-6" style="edgeStyle=orthogonalEdgeStyle;rounded=0;orthogonalLoop=1;jettySize=auto;html=1;entryX=0.5;entryY=0;entryDx=0;entryDy=0;" edge="1" parent="1" source="Hu7ftofWcwDn4Vq2h7EB-9" target="Hu7ftofWcwDn4Vq2h7EB-43">
          <mxGeometry relative="1" as="geometry">
            <Array as="points">
              <mxPoint x="405" y="200" />
              <mxPoint x="950" y="200" />
            </Array>
          </mxGeometry>
        </mxCell>
        <mxCell id="Hu7ftofWcwDn4Vq2h7EB-7" style="edgeStyle=orthogonalEdgeStyle;rounded=0;orthogonalLoop=1;jettySize=auto;html=1;entryX=0.5;entryY=0;entryDx=0;entryDy=0;" edge="1" parent="1" source="Hu7ftofWcwDn4Vq2h7EB-9" target="Hu7ftofWcwDn4Vq2h7EB-50">
          <mxGeometry relative="1" as="geometry">
            <Array as="points">
              <mxPoint x="405" y="200" />
              <mxPoint x="1100" y="200" />
            </Array>
          </mxGeometry>
        </mxCell>
        <mxCell id="Hu7ftofWcwDn4Vq2h7EB-8" style="edgeStyle=orthogonalEdgeStyle;rounded=0;orthogonalLoop=1;jettySize=auto;html=1;entryX=0.5;entryY=0;entryDx=0;entryDy=0;" edge="1" parent="1" source="Hu7ftofWcwDn4Vq2h7EB-9" target="Hu7ftofWcwDn4Vq2h7EB-56">
          <mxGeometry relative="1" as="geometry">
            <Array as="points">
              <mxPoint x="405" y="200" />
              <mxPoint x="1250" y="200" />
            </Array>
          </mxGeometry>
        </mxCell>
        <mxCell id="Hu7ftofWcwDn4Vq2h7EB-9" value="Структурно функциональна схема диалоговой системы" style="rounded=0;whiteSpace=wrap;html=1;" vertex="1" parent="1">
          <mxGeometry x="270" y="120" width="270" height="60" as="geometry" />
        </mxCell>
        <mxCell id="Hu7ftofWcwDn4Vq2h7EB-10" style="edgeStyle=orthogonalEdgeStyle;rounded=0;orthogonalLoop=1;jettySize=auto;html=1;entryX=0;entryY=0.5;entryDx=0;entryDy=0;" edge="1" parent="1" source="Hu7ftofWcwDn4Vq2h7EB-18" target="Hu7ftofWcwDn4Vq2h7EB-19">
          <mxGeometry relative="1" as="geometry">
            <Array as="points">
              <mxPoint x="130" y="255" />
              <mxPoint x="130" y="340" />
            </Array>
          </mxGeometry>
        </mxCell>
        <mxCell id="Hu7ftofWcwDn4Vq2h7EB-11" style="edgeStyle=orthogonalEdgeStyle;rounded=0;orthogonalLoop=1;jettySize=auto;html=1;entryX=0;entryY=0.5;entryDx=0;entryDy=0;" edge="1" parent="1" source="Hu7ftofWcwDn4Vq2h7EB-18" target="Hu7ftofWcwDn4Vq2h7EB-20">
          <mxGeometry relative="1" as="geometry">
            <Array as="points">
              <mxPoint x="130" y="255" />
              <mxPoint x="130" y="420" />
            </Array>
          </mxGeometry>
        </mxCell>
        <mxCell id="Hu7ftofWcwDn4Vq2h7EB-12" style="edgeStyle=orthogonalEdgeStyle;rounded=0;orthogonalLoop=1;jettySize=auto;html=1;entryX=0;entryY=0.5;entryDx=0;entryDy=0;" edge="1" parent="1" source="Hu7ftofWcwDn4Vq2h7EB-18" target="Hu7ftofWcwDn4Vq2h7EB-21">
          <mxGeometry relative="1" as="geometry">
            <Array as="points">
              <mxPoint x="130" y="255" />
              <mxPoint x="130" y="500" />
            </Array>
          </mxGeometry>
        </mxCell>
        <mxCell id="Hu7ftofWcwDn4Vq2h7EB-17" style="edgeStyle=orthogonalEdgeStyle;rounded=0;orthogonalLoop=1;jettySize=auto;html=1;entryX=0;entryY=0.5;entryDx=0;entryDy=0;" edge="1" parent="1" source="Hu7ftofWcwDn4Vq2h7EB-18" target="Hu7ftofWcwDn4Vq2h7EB-44">
          <mxGeometry relative="1" as="geometry">
            <Array as="points">
              <mxPoint x="130" y="255" />
              <mxPoint x="130" y="580" />
            </Array>
          </mxGeometry>
        </mxCell>
        <mxCell id="Hu7ftofWcwDn4Vq2h7EB-18" value="Модуль работы с файлами" style="rounded=0;whiteSpace=wrap;html=1;" vertex="1" parent="1">
          <mxGeometry x="150" y="230" width="120" height="50" as="geometry" />
        </mxCell>
        <mxCell id="Hu7ftofWcwDn4Vq2h7EB-19" value="Чтение и запись вопросов и ответов в файл" style="rounded=1;whiteSpace=wrap;html=1;arcSize=50;" vertex="1" parent="1">
          <mxGeometry x="150" y="310" width="120" height="60" as="geometry" />
        </mxCell>
        <mxCell id="Hu7ftofWcwDn4Vq2h7EB-20" value="Сохранение истории чатов" style="rounded=1;whiteSpace=wrap;html=1;arcSize=50;" vertex="1" parent="1">
          <mxGeometry x="150" y="390" width="120" height="60" as="geometry" />
        </mxCell>
        <mxCell id="Hu7ftofWcwDn4Vq2h7EB-21" value="Сохранение чатов" style="rounded=1;whiteSpace=wrap;html=1;arcSize=50;" vertex="1" parent="1">
          <mxGeometry x="150" y="470" width="120" height="60" as="geometry" />
        </mxCell>
        <mxCell id="Hu7ftofWcwDn4Vq2h7EB-23" style="edgeStyle=orthogonalEdgeStyle;rounded=0;orthogonalLoop=1;jettySize=auto;html=1;entryX=0;entryY=0.5;entryDx=0;entryDy=0;" edge="1" parent="1" source="Hu7ftofWcwDn4Vq2h7EB-24" target="Hu7ftofWcwDn4Vq2h7EB-25">
          <mxGeometry relative="1" as="geometry">
            <Array as="points">
              <mxPoint x="280" y="255" />
              <mxPoint x="280" y="340" />
            </Array>
          </mxGeometry>
        </mxCell>
        <mxCell id="Hu7ftofWcwDn4Vq2h7EB-24" value="Модуль формирования ответа" style="rounded=0;whiteSpace=wrap;html=1;" vertex="1" parent="1">
          <mxGeometry x="300" y="230" width="120" height="50" as="geometry" />
        </mxCell>
        <mxCell id="Hu7ftofWcwDn4Vq2h7EB-25" value="формирование из текста список лексем с доп. информацией" style="rounded=1;whiteSpace=wrap;html=1;arcSize=50;" vertex="1" parent="1">
          <mxGeometry x="300" y="310" width="120" height="60" as="geometry" />
        </mxCell>
        <mxCell id="Hu7ftofWcwDn4Vq2h7EB-26" style="edgeStyle=orthogonalEdgeStyle;rounded=0;orthogonalLoop=1;jettySize=auto;html=1;entryX=0;entryY=0.5;entryDx=0;entryDy=0;" edge="1" parent="1" source="Hu7ftofWcwDn4Vq2h7EB-29" target="Hu7ftofWcwDn4Vq2h7EB-30">
          <mxGeometry relative="1" as="geometry">
            <Array as="points">
              <mxPoint x="430" y="255" />
              <mxPoint x="430" y="340" />
            </Array>
          </mxGeometry>
        </mxCell>
        <mxCell id="Hu7ftofWcwDn4Vq2h7EB-27" style="edgeStyle=orthogonalEdgeStyle;rounded=0;orthogonalLoop=1;jettySize=auto;html=1;entryX=0;entryY=0.5;entryDx=0;entryDy=0;" edge="1" parent="1" source="Hu7ftofWcwDn4Vq2h7EB-29" target="Hu7ftofWcwDn4Vq2h7EB-31">
          <mxGeometry relative="1" as="geometry">
            <Array as="points">
              <mxPoint x="430" y="255" />
              <mxPoint x="430" y="420" />
            </Array>
          </mxGeometry>
        </mxCell>
        <mxCell id="Hu7ftofWcwDn4Vq2h7EB-28" style="edgeStyle=orthogonalEdgeStyle;rounded=0;orthogonalLoop=1;jettySize=auto;html=1;entryX=0;entryY=0.5;entryDx=0;entryDy=0;" edge="1" parent="1" source="Hu7ftofWcwDn4Vq2h7EB-29" target="Hu7ftofWcwDn4Vq2h7EB-39">
          <mxGeometry relative="1" as="geometry">
            <Array as="points">
              <mxPoint x="430" y="255" />
              <mxPoint x="430" y="500" />
            </Array>
          </mxGeometry>
        </mxCell>
        <mxCell id="Hu7ftofWcwDn4Vq2h7EB-29" value="Модуль представления" style="rounded=0;whiteSpace=wrap;html=1;" vertex="1" parent="1">
          <mxGeometry x="450" y="230" width="120" height="50" as="geometry" />
        </mxCell>
        <mxCell id="Hu7ftofWcwDn4Vq2h7EB-30" value="предоставляет инструменты для работы с приложением" style="rounded=1;whiteSpace=wrap;html=1;arcSize=50;" vertex="1" parent="1">
          <mxGeometry x="450" y="310" width="120" height="60" as="geometry" />
        </mxCell>
        <mxCell id="Hu7ftofWcwDn4Vq2h7EB-31" value="отображает историю чата, поле для ввода вопроса" style="rounded=1;whiteSpace=wrap;html=1;arcSize=50;" vertex="1" parent="1">
          <mxGeometry x="450" y="390" width="120" height="60" as="geometry" />
        </mxCell>
        <mxCell id="Hu7ftofWcwDn4Vq2h7EB-32" style="edgeStyle=orthogonalEdgeStyle;rounded=0;orthogonalLoop=1;jettySize=auto;html=1;entryX=0;entryY=0.5;entryDx=0;entryDy=0;" edge="1" parent="1" source="Hu7ftofWcwDn4Vq2h7EB-35" target="Hu7ftofWcwDn4Vq2h7EB-36">
          <mxGeometry relative="1" as="geometry">
            <Array as="points">
              <mxPoint x="580" y="255" />
              <mxPoint x="580" y="340" />
            </Array>
          </mxGeometry>
        </mxCell>
        <mxCell id="Hu7ftofWcwDn4Vq2h7EB-33" style="edgeStyle=orthogonalEdgeStyle;rounded=0;orthogonalLoop=1;jettySize=auto;html=1;entryX=0;entryY=0.5;entryDx=0;entryDy=0;" edge="1" parent="1" source="Hu7ftofWcwDn4Vq2h7EB-35" target="Hu7ftofWcwDn4Vq2h7EB-37">
          <mxGeometry relative="1" as="geometry">
            <Array as="points">
              <mxPoint x="580" y="255" />
              <mxPoint x="580" y="420" />
            </Array>
          </mxGeometry>
        </mxCell>
        <mxCell id="Hu7ftofWcwDn4Vq2h7EB-34" style="edgeStyle=orthogonalEdgeStyle;rounded=0;orthogonalLoop=1;jettySize=auto;html=1;entryX=0;entryY=0.5;entryDx=0;entryDy=0;" edge="1" parent="1" source="Hu7ftofWcwDn4Vq2h7EB-35" target="Hu7ftofWcwDn4Vq2h7EB-38">
          <mxGeometry relative="1" as="geometry">
            <Array as="points">
              <mxPoint x="580" y="255" />
              <mxPoint x="580" y="500" />
            </Array>
          </mxGeometry>
        </mxCell>
        <mxCell id="Hu7ftofWcwDn4Vq2h7EB-35" value="Модуль фильтрации" style="rounded=0;whiteSpace=wrap;html=1;" vertex="1" parent="1">
          <mxGeometry x="600" y="230" width="120" height="50" as="geometry" />
        </mxCell>
        <mxCell id="Hu7ftofWcwDn4Vq2h7EB-36" value="фильтрация по слову" style="rounded=1;whiteSpace=wrap;html=1;arcSize=50;" vertex="1" parent="1">
          <mxGeometry x="600" y="310" width="120" height="60" as="geometry" />
        </mxCell>
        <mxCell id="Hu7ftofWcwDn4Vq2h7EB-37" value="фильтрация по кол-ву слов" style="rounded=1;whiteSpace=wrap;html=1;arcSize=50;" vertex="1" parent="1">
          <mxGeometry x="600" y="390" width="120" height="60" as="geometry" />
        </mxCell>
        <mxCell id="Hu7ftofWcwDn4Vq2h7EB-38" value="фильтрация по морфологической инф." style="rounded=1;whiteSpace=wrap;html=1;arcSize=50;" vertex="1" parent="1">
          <mxGeometry x="600" y="470" width="120" height="60" as="geometry" />
        </mxCell>
        <mxCell id="Hu7ftofWcwDn4Vq2h7EB-39" value="помогает новым пользователям" style="rounded=1;whiteSpace=wrap;html=1;arcSize=50;" vertex="1" parent="1">
          <mxGeometry x="450" y="470" width="120" height="60" as="geometry" />
        </mxCell>
        <mxCell id="Hu7ftofWcwDn4Vq2h7EB-40" value="Модуль фильтрации" style="rounded=0;whiteSpace=wrap;html=1;" vertex="1" parent="1">
          <mxGeometry x="740" y="230" width="120" height="50" as="geometry" />
        </mxCell>
        <mxCell id="Hu7ftofWcwDn4Vq2h7EB-42" style="edgeStyle=orthogonalEdgeStyle;rounded=0;orthogonalLoop=1;jettySize=auto;html=1;entryX=0;entryY=0.5;entryDx=0;entryDy=0;exitX=0;exitY=0.5;exitDx=0;exitDy=0;" edge="1" parent="1" source="Hu7ftofWcwDn4Vq2h7EB-43" target="Hu7ftofWcwDn4Vq2h7EB-47">
          <mxGeometry relative="1" as="geometry">
            <Array as="points">
              <mxPoint x="870" y="255" />
              <mxPoint x="870" y="340" />
            </Array>
          </mxGeometry>
        </mxCell>
        <mxCell id="Hu7ftofWcwDn4Vq2h7EB-43" value="Модуль формирования корпуса текстов" style="rounded=0;whiteSpace=wrap;html=1;" vertex="1" parent="1">
          <mxGeometry x="890" y="230" width="120" height="50" as="geometry" />
        </mxCell>
        <mxCell id="Hu7ftofWcwDn4Vq2h7EB-44" value="Экспорт истории чата" style="rounded=1;whiteSpace=wrap;html=1;arcSize=50;" vertex="1" parent="1">
          <mxGeometry x="150" y="550" width="120" height="60" as="geometry" />
        </mxCell>
        <mxCell id="Hu7ftofWcwDn4Vq2h7EB-47" value="формирование корпуса из отзыва к фильму" style="rounded=1;whiteSpace=wrap;html=1;arcSize=50;" vertex="1" parent="1">
          <mxGeometry x="890" y="310" width="120" height="60" as="geometry" />
        </mxCell>
        <mxCell id="Hu7ftofWcwDn4Vq2h7EB-48" style="edgeStyle=orthogonalEdgeStyle;rounded=0;orthogonalLoop=1;jettySize=auto;html=1;entryX=0;entryY=0.5;entryDx=0;entryDy=0;" edge="1" parent="1" source="Hu7ftofWcwDn4Vq2h7EB-50" target="Hu7ftofWcwDn4Vq2h7EB-51">
          <mxGeometry relative="1" as="geometry">
            <Array as="points">
              <mxPoint x="1020" y="255" />
              <mxPoint x="1020" y="340" />
            </Array>
          </mxGeometry>
        </mxCell>
        <mxCell id="Hu7ftofWcwDn4Vq2h7EB-49" style="edgeStyle=orthogonalEdgeStyle;rounded=0;orthogonalLoop=1;jettySize=auto;html=1;entryX=0;entryY=0.5;entryDx=0;entryDy=0;" edge="1" parent="1" source="Hu7ftofWcwDn4Vq2h7EB-50" target="Hu7ftofWcwDn4Vq2h7EB-52">
          <mxGeometry relative="1" as="geometry">
            <Array as="points">
              <mxPoint x="1020" y="255" />
              <mxPoint x="1020" y="420" />
            </Array>
          </mxGeometry>
        </mxCell>
        <mxCell id="Hu7ftofWcwDn4Vq2h7EB-50" value="Модуль поиска контекста" style="rounded=0;whiteSpace=wrap;html=1;" vertex="1" parent="1">
          <mxGeometry x="1040" y="230" width="120" height="50" as="geometry" />
        </mxCell>
        <mxCell id="Hu7ftofWcwDn4Vq2h7EB-51" value="Поиск слов в корпусах текста" style="rounded=1;whiteSpace=wrap;html=1;arcSize=50;" vertex="1" parent="1">
          <mxGeometry x="1040" y="310" width="120" height="60" as="geometry" />
        </mxCell>
        <mxCell id="Hu7ftofWcwDn4Vq2h7EB-52" value="Отображение n предложений с этим словом и рейтингом отзыва" style="rounded=1;whiteSpace=wrap;html=1;arcSize=50;" vertex="1" parent="1">
          <mxGeometry x="1040" y="390" width="120" height="60" as="geometry" />
        </mxCell>
        <mxCell id="Hu7ftofWcwDn4Vq2h7EB-53" style="edgeStyle=orthogonalEdgeStyle;rounded=0;orthogonalLoop=1;jettySize=auto;html=1;entryX=0;entryY=0.5;entryDx=0;entryDy=0;" edge="1" parent="1" source="Hu7ftofWcwDn4Vq2h7EB-56" target="Hu7ftofWcwDn4Vq2h7EB-57">
          <mxGeometry relative="1" as="geometry">
            <Array as="points">
              <mxPoint x="1170" y="255" />
              <mxPoint x="1170" y="340" />
            </Array>
          </mxGeometry>
        </mxCell>
        <mxCell id="Hu7ftofWcwDn4Vq2h7EB-54" style="edgeStyle=orthogonalEdgeStyle;rounded=0;orthogonalLoop=1;jettySize=auto;html=1;entryX=0;entryY=0.5;entryDx=0;entryDy=0;" edge="1" parent="1" source="Hu7ftofWcwDn4Vq2h7EB-56" target="Hu7ftofWcwDn4Vq2h7EB-58">
          <mxGeometry relative="1" as="geometry">
            <Array as="points">
              <mxPoint x="1170" y="255" />
              <mxPoint x="1170" y="420" />
            </Array>
          </mxGeometry>
        </mxCell>
        <mxCell id="Hu7ftofWcwDn4Vq2h7EB-55" style="edgeStyle=orthogonalEdgeStyle;rounded=0;orthogonalLoop=1;jettySize=auto;html=1;entryX=0;entryY=0.5;entryDx=0;entryDy=0;" edge="1" parent="1" source="Hu7ftofWcwDn4Vq2h7EB-56" target="Hu7ftofWcwDn4Vq2h7EB-59">
          <mxGeometry relative="1" as="geometry">
            <Array as="points">
              <mxPoint x="1170" y="255" />
              <mxPoint x="1170" y="500" />
            </Array>
          </mxGeometry>
        </mxCell>
        <mxCell id="Hu7ftofWcwDn4Vq2h7EB-56" value="Модуль разбора предложения" style="rounded=0;whiteSpace=wrap;html=1;" vertex="1" parent="1">
          <mxGeometry x="1190" y="230" width="120" height="50" as="geometry" />
        </mxCell>
        <mxCell id="Hu7ftofWcwDn4Vq2h7EB-57" value="Разбиение текста на предложения" style="rounded=1;whiteSpace=wrap;html=1;arcSize=50;" vertex="1" parent="1">
          <mxGeometry x="1190" y="310" width="120" height="60" as="geometry" />
        </mxCell>
        <mxCell id="Hu7ftofWcwDn4Vq2h7EB-58" value="Формирование токенов для каждого слова предложения" style="rounded=1;whiteSpace=wrap;html=1;arcSize=50;" vertex="1" parent="1">
          <mxGeometry x="1190" y="390" width="120" height="60" as="geometry" />
        </mxCell>
        <mxCell id="Hu7ftofWcwDn4Vq2h7EB-59" value="Формирование синтаксического дерева на основе токенов и грамматики" style="rounded=1;whiteSpace=wrap;html=1;arcSize=50;" vertex="1" parent="1">
          <mxGeometry x="1190" y="470" width="120" height="60" as="geometry" />
        </mxCell>
      </root>
    </mxGraphModel>
  </diagram>
</mxfile>
